  0
SECTION
  2
HEADER
  9
$ACADVER
  1
AC1024
  9
$ACADMAINTVER
 70
6
  9
$DWGCODEPAGE
  3
ANSI_1252
  9
$LASTSAVEDBY
  1
ezdxf
  9
$INSBASE
 10
0.0
 20
0.0
 30
0.0
  9
$EXTMIN
 10
1e+20
 20
1e+20
 30
1e+20
  9
$EXTMAX
 10
-1e+20
 20
-1e+20
 30
-1e+20
  9
$LIMMIN
 10
0.0
 20
0.0
  9
$LIMMAX
 10
420.0
 20
297.0
  9
$ORTHOMODE
 70
0
  9
$REGENMODE
 70
1
  9
$FILLMODE
 70
1
  9
$QTEXTMODE
 70
0
  9
$MIRRTEXT
 70
1
  9
$LTSCALE
 40
1.0
  9
$ATTMODE
 70
1
  9
$TEXTSIZE
 40
2.5
  9
$TRACEWID
 40
1.0
  9
$TEXTSTYLE
  7
Standard
  9
$CLAYER
  8
0
  9
$CELTYPE
  6
ByLayer
  9
$CECOLOR
 62
256
  9
$CELTSCALE
 40
1.0
  9
$DISPSILH
 70
0
  9
$DIMSCALE
 40
1.0
  9
$DIMASZ
 40
2.5
  9
$DIMEXO
 40
0.625
  9
$DIMDLI
 40
3.75
  9
$DIMRND
 40
0.0
  9
$DIMDLE
 40
0.0
  9
$DIMEXE
 40
1.25
  9
$DIMTP
 40
0.0
  9
$DIMTM
 40
0.0
  9
$DIMTXT
 40
2.5
  9
$DIMCEN
 40
2.5
  9
$DIMTSZ
 40
0.0
  9
$DIMTOL
 70
0
  9
$DIMLIM
 70
0
  9
$DIMTIH
 70
0
  9
$DIMTOH
 70
0
  9
$DIMSE1
 70
0
  9
$DIMSE2
 70
0
  9
$DIMTAD
 70
1
  9
$DIMZIN
 70
8
  9
$DIMBLK
  1

  9
$DIMASO
 70
1
  9
$DIMSHO
 70
1
  9
$DIMPOST
  1

  9
$DIMAPOST
  1

  9
$DIMALT
 70
0
  9
$DIMALTD
 70
3
  9
$DIMALTF
 40
0.03937007874
  9
$DIMLFAC
 40
1.0
  9
$DIMTOFL
 70
1
  9
$DIMTVP
 40
0.0
  9
$DIMTIX
 70
0
  9
$DIMSOXD
 70
0
  9
$DIMSAH
 70
0
  9
$DIMBLK1
  1

  9
$DIMBLK2
  1

  9
$DIMSTYLE
  2
ISO-25
  9
$DIMCLRD
 70
0
  9
$DIMCLRE
 70
0
  9
$DIMCLRT
 70
0
  9
$DIMTFAC
 40
1.0
  9
$DIMGAP
 40
0.625
  9
$DIMJUST
 70
0
  9
$DIMSD1
 70
0
  9
$DIMSD2
 70
0
  9
$DIMTOLJ
 70
0
  9
$DIMTZIN
 70
8
  9
$DIMALTZ
 70
0
  9
$DIMALTTZ
 70
0
  9
$DIMUPT
 70
0
  9
$DIMDEC
 70
2
  9
$DIMTDEC
 70
2
  9
$DIMALTU
 70
2
  9
$DIMALTTD
 70
3
  9
$DIMTXSTY
  7
Standard
  9
$DIMAUNIT
 70
0
  9
$DIMADEC
 70
0
  9
$DIMALTRND
 40
0.0
  9
$DIMAZIN
 70
0
  9
$DIMDSEP
 70
44
  9
$DIMATFIT
 70
3
  9
$DIMFRAC
 70
0
  9
$DIMLDRBLK
  1

  9
$DIMLUNIT
 70
2
  9
$DIMLWD
 70
-2
  9
$DIMLWE
 70
-2
  9
$DIMTMOVE
 70
0
  9
$DIMFXL
 40
1.0
  9
$DIMFXLON
 70
0
  9
$DIMJOGANG
 40
0.785398163397
  9
$DIMTFILL
 70
0
  9
$DIMTFILLCLR
 70
0
  9
$DIMARCSYM
 70
0
  9
$DIMLTYPE
  6

  9
$DIMLTEX1
  6

  9
$DIMLTEX2
  6

  9
$DIMTXTDIRECTION
 70
0
  9
$LUNITS
 70
2
  9
$LUPREC
 70
4
  9
$SKETCHINC
 40
1.0
  9
$FILLETRAD
 40
10.0
  9
$AUNITS
 70
0
  9
$AUPREC
 70
2
  9
$MENU
  1
.
  9
$ELEVATION
 40
0.0
  9
$PELEVATION
 40
0.0
  9
$THICKNESS
 40
0.0
  9
$LIMCHECK
 70
0
  9
$CHAMFERA
 40
0.0
  9
$CHAMFERB
 40
0.0
  9
$CHAMFERC
 40
0.0
  9
$CHAMFERD
 40
0.0
  9
$SKPOLY
 70
0
  9
$TDCREATE
 40
2461202.585636574
  9
$TDUCREATE
 40
2458532.153996898
  9
$TDUPDATE
 40
2461202.585636574
  9
$TDUUPDATE
 40
2458532.1544311
  9
$TDINDWG
 40
0.0
  9
$TDUSRTIMER
 40
0.0
  9
$USRTIMER
 70
1
  9
$ANGBASE
 50
0.0
  9
$ANGDIR
 70
0
  9
$PDMODE
 70
0
  9
$PDSIZE
 40
0.0
  9
$PLINEWID
 40
0.0
  9
$SPLFRAME
 70
0
  9
$SPLINETYPE
 70
6
  9
$SPLINESEGS
 70
8
  9
$HANDSEED
  5
4F
  9
$SURFTAB1
 70
6
  9
$SURFTAB2
 70
6
  9
$SURFTYPE
 70
6
  9
$SURFU
 70
6
  9
$SURFV
 70
6
  9
$UCSBASE
  2

  9
$UCSNAME
  2

  9
$UCSORG
 10
0.0
 20
0.0
 30
0.0
  9
$UCSXDIR
 10
1.0
 20
0.0
 30
0.0
  9
$UCSYDIR
 10
0.0
 20
1.0
 30
0.0
  9
$UCSORTHOREF
  2

  9
$UCSORTHOVIEW
 70
0
  9
$UCSORGTOP
 10
0.0
 20
0.0
 30
0.0
  9
$UCSORGBOTTOM
 10
0.0
 20
0.0
 30
0.0
  9
$UCSORGLEFT
 10
0.0
 20
0.0
 30
0.0
  9
$UCSORGRIGHT
 10
0.0
 20
0.0
 30
0.0
  9
$UCSORGFRONT
 10
0.0
 20
0.0
 30
0.0
  9
$UCSORGBACK
 10
0.0
 20
0.0
 30
0.0
  9
$PUCSBASE
  2

  9
$PUCSNAME
  2

  9
$PUCSORG
 10
0.0
 20
0.0
 30
0.0
  9
$PUCSXDIR
 10
1.0
 20
0.0
 30
0.0
  9
$PUCSYDIR
 10
0.0
 20
1.0
 30
0.0
  9
$PUCSORTHOREF
  2

  9
$PUCSORTHOVIEW
 70
0
  9
$PUCSORGTOP
 10
0.0
 20
0.0
 30
0.0
  9
$PUCSORGBOTTOM
 10
0.0
 20
0.0
 30
0.0
  9
$PUCSORGLEFT
 10
0.0
 20
0.0
 30
0.0
  9
$PUCSORGRIGHT
 10
0.0
 20
0.0
 30
0.0
  9
$PUCSORGFRONT
 10
0.0
 20
0.0
 30
0.0
  9
$PUCSORGBACK
 10
0.0
 20
0.0
 30
0.0
  9
$USERI1
 70
0
  9
$USERI2
 70
0
  9
$USERI3
 70
0
  9
$USERI4
 70
0
  9
$USERI5
 70
0
  9
$USERR1
 40
0.0
  9
$USERR2
 40
0.0
  9
$USERR3
 40
0.0
  9
$USERR4
 40
0.0
  9
$USERR5
 40
0.0
  9
$WORLDVIEW
 70
1
  9
$SHADEDGE
 70
3
  9
$SHADEDIF
 70
70
  9
$TILEMODE
 70
1
  9
$MAXACTVP
 70
64
  9
$PINSBASE
 10
0.0
 20
0.0
 30
0.0
  9
$PLIMCHECK
 70
0
  9
$PEXTMIN
 10
1e+20
 20
1e+20
 30
1e+20
  9
$PEXTMAX
 10
-1e+20
 20
-1e+20
 30
-1e+20
  9
$PLIMMIN
 10
0.0
 20
0.0
  9
$PLIMMAX
 10
420.0
 20
297.0
  9
$UNITMODE
 70
0
  9
$VISRETAIN
 70
1
  9
$PLINEGEN
 70
0
  9
$PSLTSCALE
 70
1
  9
$TREEDEPTH
 70
3020
  9
$CMLSTYLE
  2
Standard
  9
$CMLJUST
 70
0
  9
$CMLSCALE
 40
20.0
  9
$PROXYGRAPHICS
 70
1
  9
$MEASUREMENT
 70
1
  9
$CELWEIGHT
370
-1
  9
$ENDCAPS
280
0
  9
$JOINSTYLE
280
0
  9
$LWDISPLAY
290
0
  9
$INSUNITS
 70
4
  9
$HYPERLINKBASE
  1

  9
$STYLESHEET
  1

  9
$XEDIT
290
1
  9
$CEPSNTYPE
380
0
  9
$PSTYLEMODE
290
1
  9
$FINGERPRINTGUID
  2
{4FAF842B-0878-4E44-8898-321432B2701F}
  9
$VERSIONGUID
  2
{AA47CA14-E226-4F08-B504-A4A5BA6D12C8}
  9
$EXTNAMES
290
1
  9
$PSVPSCALE
 40
0.0
  9
$OLESTARTUP
290
0
  9
$SORTENTS
280
127
  9
$INDEXCTL
280
0
  9
$HIDETEXT
280
1
  9
$XCLIPFRAME
280
1
  9
$HALOGAP
280
0
  9
$OBSCOLOR
 70
257
  9
$OBSLTYPE
280
0
  9
$INTERSECTIONDISPLAY
280
0
  9
$INTERSECTIONCOLOR
 70
257
  9
$DIMASSOC
280
2
  9
$PROJECTNAME
  1

  9
$CAMERADISPLAY
290
0
  9
$LENSLENGTH
 40
50.0
  9
$CAMERAHEIGHT
 40
0.0
  9
$STEPSPERSEC
 40
24.0
  9
$STEPSIZE
 40
100.0
  9
$3DDWFPREC
 40
2.0
  9
$PSOLWIDTH
 40
0.005
  9
$PSOLHEIGHT
 40
0.08
  9
$LOFTANG1
 40
1.570796326795
  9
$LOFTANG2
 40
1.570796326795
  9
$LOFTMAG1
 40
0.0
  9
$LOFTMAG2
 40
0.0
  9
$LOFTPARAM
 70
7
  9
$LOFTNORMALS
280
1
  9
$LATITUDE
 40
37.795
  9
$LONGITUDE
 40
-122.394
  9
$NORTHDIRECTION
 40
0.0
  9
$TIMEZONE
 70
-8000
  9
$LIGHTGLYPHDISPLAY
280
1
  9
$TILEMODELIGHTSYNCH
280
1
  9
$CMATERIAL
347
20
  9
$SOLIDHIST
280
0
  9
$SHOWHIST
280
1
  9
$DWFFRAME
280
2
  9
$DGNFRAME
280
2
  9
$REALWORLDSCALE
290
1
  9
$INTERFERECOLOR
 62
256
  9
$CSHADOW
280
0
  9
$SHADOWPLANELOCATION
 40
0.0
  0
ENDSEC
  0
SECTION
  2
CLASSES
  0
CLASS
  1
ACDBDICTIONARYWDFLT
  2
AcDbDictionaryWithDefault
  3
ObjectDBX Classes
 90
0
 91
0
280
0
281
0
  0
CLASS
  1
SUN
  2
AcDbSun
  3
SCENEOE
 90
1153
 91
0
280
0
281
0
  0
CLASS
  1
VISUALSTYLE
  2
AcDbVisualStyle
  3
ObjectDBX Classes
 90
4095
 91
0
280
0
281
0
  0
CLASS
  1
MATERIAL
  2
AcDbMaterial
  3
ObjectDBX Classes
 90
1153
 91
0
280
0
281
0
  0
CLASS
  1
SCALE
  2
AcDbScale
  3
ObjectDBX Classes
 90
1153
 91
0
280
0
281
0
  0
CLASS
  1
TABLESTYLE
  2
AcDbTableStyle
  3
ObjectDBX Classes
 90
4095
 91
0
280
0
281
0
  0
CLASS
  1
MLEADERSTYLE
  2
AcDbMLeaderStyle
  3
ACDB_MLEADERSTYLE_CLASS
 90
4095
 91
0
280
0
281
0
  0
CLASS
  1
DICTIONARYVAR
  2
AcDbDictionaryVar
  3
ObjectDBX Classes
 90
0
 91
0
280
0
281
0
  0
CLASS
  1
CELLSTYLEMAP
  2
AcDbCellStyleMap
  3
ObjectDBX Classes
 90
1152
 91
0
280
0
281
0
  0
CLASS
  1
MENTALRAYRENDERSETTINGS
  2
AcDbMentalRayRenderSettings
  3
SCENEOE
 90
1024
 91
0
280
0
281
0
  0
CLASS
  1
ACDBDETAILVIEWSTYLE
  2
AcDbDetailViewStyle
  3
ObjectDBX Classes
 90
1025
 91
0
280
0
281
0
  0
CLASS
  1
ACDBSECTIONVIEWSTYLE
  2
AcDbSectionViewStyle
  3
ObjectDBX Classes
 90
1025
 91
0
280
0
281
0
  0
CLASS
  1
RASTERVARIABLES
  2
AcDbRasterVariables
  3
ISM
 90
0
 91
0
280
0
281
0
  0
CLASS
  1
LAYOUT
  2
AcDbLayout
  3
ObjectDBX Classes
 90
0
 91
0
280
0
281
0
  0
CLASS
  1
ACDBPLACEHOLDER
  2
AcDbPlaceHolder
  3
ObjectDBX Classes
 90
0
 91
0
280
0
281
0
  0
ENDSEC
  0
SECTION
  2
TABLES
  0
TABLE
  2
VPORT
  5
8
330
0
100
AcDbSymbolTable
 70
1
  0
VPORT
  5
23
330
8
100
AcDbSymbolTableRecord
100
AcDbViewportTableRecord
  2
*Active
 70
0
 10
0.0
 20
0.0
 11
1.0
 21
1.0
 12
0.0
 22
0.0
 13
0.0
 23
0.0
 14
0.5
 24
0.5
 15
0.5
 25
0.5
 16
0.0
 26
0.0
 36
1.0
 17
0.0
 27
0.0
 37
0.0
 40
1000.0
 41
1.34
 42
50.0
 43
0.0
 44
0.0
 50
0.0
 51
0.0
 71
0
 72
1000
 73
1
 74
3
 75
0
 76
0
 77
0
 78
0
281
0
 65
0
146
0.0
  0
ENDTAB
  0
TABLE
  2
LTYPE
  5
2
330
0
100
AcDbSymbolTable
 70
3
  0
LTYPE
  5
24
330
2
100
AcDbSymbolTableRecord
100
AcDbLinetypeTableRecord
  2
ByBlock
 70
0
  3

 72
65
 73
0
 40
0.0
  0
LTYPE
  5
25
330
2
100
AcDbSymbolTableRecord
100
AcDbLinetypeTableRecord
  2
ByLayer
 70
0
  3

 72
65
 73
0
 40
0.0
  0
LTYPE
  5
26
330
2
100
AcDbSymbolTableRecord
100
AcDbLinetypeTableRecord
  2
Continuous
 70
0
  3

 72
65
 73
0
 40
0.0
  0
ENDTAB
  0
TABLE
  2
LAYER
  5
1
330
0
100
AcDbSymbolTable
 70
2
  0
LAYER
  5
27
330
1
100
AcDbSymbolTableRecord
100
AcDbLayerTableRecord
  2
0
 70
0
 62
7
  6
Continuous
370
-3
390
13
347
21
  0
LAYER
  5
28
330
1
100
AcDbSymbolTableRecord
100
AcDbLayerTableRecord
  2
Defpoints
 70
0
 62
7
  6
Continuous
290
0
370
-3
390
13
347
21
  0
ENDTAB
  0
TABLE
  2
STYLE
  5
5
330
0
100
AcDbSymbolTable
 70
1
  0
STYLE
  5
29
330
5
100
AcDbSymbolTableRecord
100
AcDbTextStyleTableRecord
  2
Standard
 70
0
 40
0.0
 41
1.0
 50
0.0
 71
0
 42
2.5
  3
txt
  4

  0
ENDTAB
  0
TABLE
  2
VIEW
  5
7
330
0
100
AcDbSymbolTable
 70
0
  0
ENDTAB
  0
TABLE
  2
UCS
  5
6
330
0
100
AcDbSymbolTable
 70
0
  0
ENDTAB
  0
TABLE
  2
APPID
  5
3
330
0
100
AcDbSymbolTable
 70
3
  0
APPID
  5
2A
330
3
100
AcDbSymbolTableRecord
100
AcDbRegAppTableRecord
  2
ACAD
 70
0
  0
APPID
  5
4C
330
3
100
AcDbSymbolTableRecord
100
AcDbRegAppTableRecord
  2
HATCHBACKGROUNDCOLOR
 70
0
  0
APPID
  5
4D
330
3
100
AcDbSymbolTableRecord
100
AcDbRegAppTableRecord
  2
EZDXF
 70
0
  0
ENDTAB
  0
TABLE
  2
DIMSTYLE
  5
4
330
0
100
AcDbSymbolTable
 70
1
100
AcDbDimStyleTable
  0
DIMSTYLE
105
2B
330
4
100
AcDbSymbolTableRecord
100
AcDbDimStyleTableRecord
  2
Standard
 70
0
 40
1.0
 41
2.5
 42
0.625
 43
3.75
 44
1.25
 45
0.0
 46
0.0
 47
0.0
 48
0.0
 49
2.5
140
2.5
141
2.5
142
0.0
143
0.03937007874
144
1.0
145
0.0
146
1.0
147
0.625
148
0.0
 69
0
 70
0
 71
0
 72
0
 73
0
 74
0
 75
0
 76
0
 77
1
 78
8
 79
3
170
0
171
3
172
1
173
0
174
0
175
0
176
0
177
0
178
0
179
2
271
2
272
2
273
2
274
3
275
0
276
0
277
2
278
44
279
0
280
0
281
0
282
0
283
0
284
8
285
0
286
0
288
0
289
3
290
0
371
-2
372
-2
  0
ENDTAB
  0
TABLE
  2
BLOCK_RECORD
  5
9
330
0
100
AcDbSymbolTable
 70
2
  0
BLOCK_RECORD
  5
17
330
9
100
AcDbSymbolTableRecord
100
AcDbBlockTableRecord
  2
*Model_Space
340
1A
 70
0
280
1
281
0
  0
BLOCK_RECORD
  5
1B
330
9
100
AcDbSymbolTableRecord
100
AcDbBlockTableRecord
  2
*Paper_Space
340
1E
 70
0
280
1
281
0
  0
ENDTAB
  0
ENDSEC
  0
SECTION
  2
BLOCKS
  0
BLOCK
  5
18
330
17
100
AcDbEntity
  8
0
100
AcDbBlockBegin
  2
*Model_Space
 70
0
 10
0.0
 20
0.0
 30
0.0
  3
*Model_Space
  1

  0
ENDBLK
  5
19
330
17
100
AcDbEntity
  8
0
100
AcDbBlockEnd
  0
BLOCK
  5
1C
330
1B
100
AcDbEntity
  8
0
100
AcDbBlockBegin
  2
*Paper_Space
 70
0
 10
0.0
 20
0.0
 30
0.0
  3
*Paper_Space
  1

  0
ENDBLK
  5
1D
330
1B
100
AcDbEntity
  8
0
100
AcDbBlockEnd
  0
ENDSEC
  0
SECTION
  2
ENTITIES
  0
LWPOLYLINE
  5
2F
330
17
100
AcDbEntity
  8
0
100
AcDbPolyline
 90
17
 70
1
 10
1.5647171620325984
 20
1.5647171620325984
 10
1.5647171620325984
 20
1.1476510067114094
 10
1.6021093000958773
 20
1.084372003835091
 10
1.763183125599233
 20
1.084372003835091
 10
1.8063279002876318
 20
1.093000958772771
 10
1.840843720038351
 20
1.1102588686481305
 10
1.8868648130393098
 20
1.1505273250239694
 10
1.9069990412272293
 20
1.1792905081495686
 10
1.9300095877277086
 20
1.2281879194630874
 10
1.9415148609779482
 20
1.2713326941514862
 10
1.9415148609779482
 20
1.3835091083413231
 10
1.9271332694151486
 20
1.4352828379674019
 10
1.9041227229146693
 20
1.4813039309683604
 10
1.8897411313518697
 20
1.50143815915628
 10
1.8523489932885906
 20
1.5359539789069991
 10
1.8092042186001918
 20
1.5589645254074784
 10
1.7861936720997125
 20
1.5647171620325984
  0
LWPOLYLINE
  5
30
330
17
100
AcDbEntity
  8
0
100
AcDbPolyline
 90
12
 70
1
 10
1.6653883029721956
 20
1.49568552253116
 10
1.7315436241610738
 20
1.49568552253116
 10
1.7545541706615533
 20
1.4841802492809204
 10
1.7890699904122724
 20
1.4467881112176415
 10
1.803451581975072
 20
1.4122722914669223
 10
1.8092042186001918
 20
1.3806327900287632
 10
1.8063279002876318
 20
1.314477468839885
 10
1.7861936720997125
 20
1.2627037392138063
 10
1.7459252157238734
 20
1.2224352828379674
 10
1.728667305848514
 20
1.2138063279002878
 10
1.6999041227229148
 20
1.2080536912751678
 10
1.6625119846596357
 20
1.2109300095877278
  0
LWPOLYLINE
  5
31
330
17
100
AcDbEntity
  8
0
100
AcDbPolyline
 90
49
 70
1
 10
0.862895493767977
 20
1.5848513902205177
 10
0.825503355704698
 20
1.576222435282838
 10
0.7996164908916586
 20
1.5647171620325984
 10
0.7996164908916586
 20
1.4928092042186003
 10
0.8715244487056568
 20
1.49856184084372
 10
0.900287631831256
 20
1.5100671140939597
 10
0.9204218600191755
 20
1.5100671140939597
 10
0.9491850431447747
 20
1.49856184084372
 10
0.9664429530201343
 20
1.4813039309683604
 10
0.9750719079578141
 20
1.464046021093001
 10
0.9750719079578141
 20
1.429530201342282
 10
0.9635666347075743
 20
1.4093959731543624
 10
0.937679769894535
 20
1.4065196548418024
 10
0.8744007670182167
 20
1.3806327900287632
 10
0.8744007670182167
 20
1.311601150527325
 10
0.9204218600191755
 20
1.308724832214765
 10
0.9549376797698945
 20
1.2943432406519655
 10
0.9750719079578141
 20
1.274209012464046
 10
0.9837008628954937
 20
1.2569511025886866
 10
0.9837008628954937
 20
1.2224352828379674
 10
0.9664429530201343
 20
1.2166826462128475
 10
0.9204218600191755
 20
1.2224352828379674
 10
0.8600191754554171
 20
1.2483221476510067
 10
0.788111217641419
 20
1.2023010546500479
 10
0.785234899328859
 20
1.1246404602109301
 10
0.788111217641419
 20
1.1188878235858102
 10
0.8427612655800576
 20
1.0987535953978906
 10
0.8744007670182167
 20
1.093000958772771
 10
0.9290508149568553
 20
1.093000958772771
 10
0.9750719079578141
 20
1.1045062320230106
 10
1.012464046021093
 20
1.1246404602109301
 10
1.0556088207094918
 20
1.170661553211889
 10
1.087248322147651
 20
1.2138063279002878
 10
1.0987535953978906
 20
1.236816874400767
 10
1.1045062320230106
 20
1.2598274209012463
 10
1.1045062320230106
 20
1.3058485139022051
 10
1.0987535953978906
 20
1.3259827420901247
 10
1.087248322147651
 20
1.348993288590604
 10
1.049856184084372
 20
1.3806327900287632
 10
1.0699904122722914
 20
1.3950143815915628
 10
1.090124640460211
 20
1.4209012464046022
 10
1.095877277085331
 20
1.4381591562799616
 10
1.0987535953978906
 20
1.4813039309683604
 10
1.090124640460211
 20
1.5158197507190796
 10
1.0814956855225313
 20
1.5302013422818792
 10
1.052732502396932
 20
1.5589645254074784
 10
1.0325982742090125
 20
1.570469798657718
 10
1.0038350910834133
 20
1.579098753595398
 10
0.9549376797698945
 20
1.5848513902205177
  0
LWPOLYLINE
  5
32
330
17
100
AcDbEntity
  8
0
100
AcDbPolyline
 90
16
 70
1
 10
1.3691275167785235
 20
2.0076701821668266
 10
1.3662511984659635
 20
1.9789069990412274
 10
1.3720038350910835
 20
1.9357622243528285
 10
1.389261744966443
 20
1.921380632790029
 10
1.4065196548418024
 20
1.921380632790029
 10
1.4209012464046022
 20
1.9300095877277086
 10
1.426653883029722
 20
1.9242569511025887
 10
1.4352828379674019
 20
1.9242569511025887
 10
1.4352828379674019
 20
2.0047938638542666
 10
1.423777564717162
 20
2.0076701821668266
 10
1.423777564717162
 20
1.9472674976030682
 10
1.4151486097794823
 20
1.9357622243528285
 10
1.3978906999041227
 20
1.9300095877277086
 10
1.389261744966443
 20
1.9328859060402686
 10
1.3806327900287632
 20
1.9443911792905082
 10
1.3777564717162032
 20
2.0076701821668266
  0
LWPOLYLINE
  5
33
330
17
100
AcDbEntity
  8
0
100
AcDbPolyline
 90
9
 70
1
 10
1.1073825503355705
 20
2.0076701821668266
 10
1.1073825503355705
 20
1.9990412272291467
 10
1.1361457334611698
 20
1.9271332694151486
 10
1.1476510067114094
 20
1.9242569511025887
 10
1.1821668264621286
 20
2.0047938638542666
 10
1.170661553211889
 20
2.0076701821668266
 10
1.1505273250239694
 20
1.9530201342281879
 10
1.1418983700862895
 20
1.9443911792905082
 10
1.1188878235858102
 20
2.0047938638542666
  0
LWPOLYLINE
  5
34
330
17
100
AcDbEntity
  8
0
100
AcDbPolyline
 90
10
 70
1
 10
1.8149568552253117
 20
2.0105465004793865
 10
1.803451581975072
 20
2.0105465004793865
 10
1.7919463087248322
 20
2.0019175455417066
 10
1.7861936720997125
 20
2.0076701821668266
 10
1.7775647171620326
 20
2.0047938638542666
 10
1.7804410354745925
 20
1.9242569511025887
 10
1.7890699904122724
 20
1.9242569511025887
 10
1.7919463087248322
 20
1.987535953978907
 10
1.803451581975072
 20
1.9990412272291467
 10
1.8120805369127517
 20
1.9990412272291467
  0
LWPOLYLINE
  5
35
330
17
100
AcDbEntity
  8
0
100
AcDbPolyline
 90
16
 70
1
 10
1.7171620325982742
 20
2.0105465004793865
 10
1.7056567593480345
 20
2.0047938638542666
 10
1.691275167785235
 20
1.987535953978907
 10
1.688398849472675
 20
1.9501438159156281
 10
1.6941514860977949
 20
1.9386385426653883
 10
1.7114093959731544
 20
1.9242569511025887
 10
1.7488015340364333
 20
1.9242569511025887
 10
1.7545541706615533
 20
1.9271332694151486
 10
1.7516778523489933
 20
1.9357622243528285
 10
1.7171620325982742
 20
1.9328859060402686
 10
1.7027804410354745
 20
1.9443911792905082
 10
1.7027804410354745
 20
1.9645254074784277
 10
1.760306807286673
 20
1.9674017257909875
 10
1.760306807286673
 20
1.981783317353787
 10
1.7516778523489933
 20
1.9990412272291467
 10
1.7344199424736337
 20
2.0105465004793865
  0
LWPOLYLINE
  5
36
330
17
100
AcDbEntity
  8
0
100
AcDbPolyline
 90
6
 70
1
 10
1.6999041227229148
 20
1.9789069990412274
 10
1.7027804410354745
 20
1.987535953978907
 10
1.722914669223394
 20
2.0019175455417066
 10
1.7372962607861937
 20
1.9990412272291467
 10
1.7488015340364333
 20
1.981783317353787
 10
1.7459252157238734
 20
1.9760306807286674
  0
LWPOLYLINE
  5
37
330
17
100
AcDbEntity
  8
0
100
AcDbPolyline
 90
23
 70
1
 10
1.4582933844678811
 20
2.0047938638542666
 10
1.4611697027804411
 20
1.9242569511025887
 10
1.4697986577181208
 20
1.9242569511025887
 10
1.4726749760306808
 20
1.987535953978907
 10
1.4928092042186003
 20
2.0019175455417066
 10
1.50431447746884
 20
1.9990412272291467
 10
1.5129434324065196
 20
1.984659635666347
 10
1.5158197507190796
 20
1.9242569511025887
 10
1.5244487056567593
 20
1.9271332694151486
 10
1.5244487056567593
 20
1.984659635666347
 10
1.5359539789069991
 20
1.9990412272291467
 10
1.5445829338446788
 20
2.0019175455417066
 10
1.5618408437200384
 20
1.993288590604027
 10
1.5647171620325984
 20
1.9242569511025887
 10
1.576222435282838
 20
1.9242569511025887
 10
1.576222435282838
 20
1.984659635666347
 10
1.5618408437200384
 20
2.0076701821668266
 10
1.538830297219559
 20
2.0105465004793865
 10
1.5215723873441995
 20
1.9961649089165867
 10
1.50143815915628
 20
2.0105465004793865
 10
1.4870565675934804
 20
2.0105465004793865
 10
1.4726749760306808
 20
1.9990412272291467
 10
1.4669223394055608
 20
2.0076701821668266
  0
LWPOLYLINE
  5
38
330
17
100
AcDbEntity
  8
0
100
AcDbPolyline
 90
16
 70
1
 10
1.277085330776606
 20
2.0076701821668266
 10
1.277085330776606
 20
1.9242569511025887
 10
1.2885906040268456
 20
1.9271332694151486
 10
1.2885906040268456
 20
1.984659635666347
 10
1.2972195589645255
 20
1.9961649089165867
 10
1.308724832214765
 20
2.0019175455417066
 10
1.3231064237775647
 20
1.9990412272291467
 10
1.3317353787152446
 20
1.990412272291467
 10
1.3346116970278044
 20
1.9242569511025887
 10
1.3432406519654843
 20
1.9242569511025887
 10
1.3461169702780442
 20
1.9731543624161074
 10
1.3403643336529243
 20
1.9961649089165867
 10
1.3231064237775647
 20
2.0105465004793865
 10
1.3058485139022051
 20
2.0105465004793865
 10
1.2885906040268456
 20
1.9990412272291467
 10
1.2857142857142858
 20
2.0076701821668266
  0
LWPOLYLINE
  5
39
330
17
100
AcDbEntity
  8
0
100
AcDbPolyline
 90
17
 70
1
 10
1.2166826462128475
 20
2.0105465004793865
 10
1.2051773729626079
 20
2.0047938638542666
 10
1.1907957813998082
 20
1.987535953978907
 10
1.1879194630872483
 20
1.9501438159156281
 10
1.1936720997123682
 20
1.9386385426653883
 10
1.2109300095877278
 20
1.9242569511025887
 10
1.2483221476510067
 20
1.9242569511025887
 10
1.2540747842761266
 20
1.9300095877277086
 10
1.2511984659635667
 20
1.9357622243528285
 10
1.2166826462128475
 20
1.9328859060402686
 10
1.1994247363374881
 20
1.9501438159156281
 10
1.2023010546500479
 20
1.9645254074784277
 10
1.2454458293384467
 20
1.9645254074784277
 10
1.2598274209012463
 20
1.9702780441035475
 10
1.2569511025886866
 20
1.987535953978907
 10
1.2454458293384467
 20
2.0047938638542666
 10
1.233940556088207
 20
2.0105465004793865
  0
LWPOLYLINE
  5
3A
330
17
100
AcDbEntity
  8
0
100
AcDbPolyline
 90
6
 70
1
 10
1.1994247363374881
 20
1.981783317353787
 10
1.2138063279002878
 20
1.9990412272291467
 10
1.2281879194630874
 20
2.0019175455417066
 10
1.242569511025887
 20
1.993288590604027
 10
1.2483221476510067
 20
1.9789069990412274
 10
1.2023010546500479
 20
1.9760306807286674
  0
LWPOLYLINE
  5
3B
330
17
100
AcDbEntity
  8
0
100
AcDbPolyline
 90
17
 70
1
 10
1.0412272291466922
 20
2.0047938638542666
 10
1.0412272291466922
 20
1.9961649089165867
 10
1.0584851390220518
 20
2.0019175455417066
 10
1.0757430488974113
 20
1.9990412272291467
 10
1.084372003835091
 20
1.9789069990412274
 10
1.0469798657718121
 20
1.9702780441035475
 10
1.0325982742090125
 20
1.9530201342281879
 10
1.0354745925215725
 20
1.9328859060402686
 10
1.049856184084372
 20
1.921380632790029
 10
1.0671140939597317
 20
1.921380632790029
 10
1.0814956855225313
 20
1.9300095877277086
 10
1.087248322147651
 20
1.9242569511025887
 10
1.095877277085331
 20
1.9242569511025887
 10
1.095877277085331
 20
1.9731543624161074
 10
1.090124640460211
 20
1.9990412272291467
 10
1.0728667305848514
 20
2.0105465004793865
 10
1.0556088207094918
 20
2.0105465004793865
  0
LWPOLYLINE
  5
3C
330
17
100
AcDbEntity
  8
0
100
AcDbPolyline
 90
7
 70
1
 10
1.0814956855225313
 20
1.9674017257909875
 10
1.0814956855225313
 20
1.9415148609779482
 10
1.0642377756471717
 20
1.9300095877277086
 10
1.049856184084372
 20
1.9328859060402686
 10
1.0441035474592522
 20
1.9415148609779482
 10
1.0469798657718121
 20
1.9558964525407478
 10
1.0584851390220518
 20
1.9645254074784277
  0
LWPOLYLINE
  5
3D
330
17
100
AcDbEntity
  8
0
100
AcDbPolyline
 90
16
 70
1
 10
0.8945349952061362
 20
2.0421860019175457
 10
0.9232981783317354
 20
1.9242569511025887
 10
0.9319271332694151
 20
1.9242569511025887
 10
0.937679769894535
 20
1.9328859060402686
 10
0.9549376797698945
 20
1.9990412272291467
 10
0.9635666347075743
 20
2.0134228187919465
 10
0.9865771812080537
 20
1.9271332694151486
 10
0.9980824544582934
 20
1.9242569511025887
 10
1.0325982742090125
 20
2.0421860019175457
 10
1.0210930009587729
 20
2.0393096836049858
 10
0.9952061361457335
 20
1.9501438159156281
 10
0.9894534995206137
 20
1.9558964525407478
 10
0.9693192713326941
 20
2.0393096836049858
 10
0.9578139980824545
 20
2.0421860019175457
 10
0.9290508149568553
 20
1.9472674976030682
 10
0.9031639501438159
 20
2.0421860019175457
  0
LWPOLYLINE
  5
3E
330
17
100
AcDbEntity
  8
0
100
AcDbPolyline
 90
14
 70
1
 10
1.6021093000958773
 20
2.0479386385426652
 10
1.5992329817833173
 20
1.9242569511025887
 10
1.6078619367209972
 20
1.9242569511025887
 10
1.613614573346117
 20
1.9328859060402686
 10
1.6279961649089165
 20
1.921380632790029
 10
1.648130393096836
 20
1.921380632790029
 10
1.6596356663470757
 20
1.9271332694151486
 10
1.6740172579098753
 20
1.9472674976030682
 10
1.6740172579098753
 20
1.987535953978907
 10
1.6596356663470757
 20
2.0047938638542666
 10
1.648130393096836
 20
2.0105465004793865
 10
1.6308724832214765
 20
2.0105465004793865
 10
1.613614573346117
 20
1.9990412272291467
 10
1.6107382550335572
 20
2.0450623202301057
  0
LWPOLYLINE
  5
3F
330
17
100
AcDbEntity
  8
0
100
AcDbPolyline
 90
9
 70
1
 10
1.6337488015340365
 20
2.0019175455417066
 10
1.651006711409396
 20
1.9990412272291467
 10
1.6653883029721956
 20
1.9760306807286674
 10
1.6653883029721956
 20
1.9530201342281879
 10
1.6596356663470757
 20
1.9415148609779482
 10
1.6423777564717161
 20
1.9300095877277086
 10
1.6193672099712368
 20
1.9357622243528285
 10
1.6107382550335572
 20
1.9501438159156281
 10
1.613614573346117
 20
1.987535953978907
  0
LWPOLYLINE
  5
40
330
17
100
AcDbEntity
  8
0
100
AcDbPolyline
 90
20
 70
1
 10
1.170661553211889
 20
2.3815915627996165
 10
1.164908916586769
 20
2.3758389261744965
 10
1.170661553211889
 20
2.3441994247363374
 10
1.1907957813998082
 20
2.3499520613614573
 10
1.2281879194630874
 20
2.3470757430488973
 10
1.2109300095877278
 20
2.1975071907957813
 10
1.1879194630872483
 20
2.1140939597315436
 10
1.236816874400767
 20
2.1140939597315436
 10
1.242569511025887
 20
2.1227229146692235
 10
1.2627037392138063
 20
2.203259827420901
 10
1.2799616490891659
 20
2.3499520613614573
 10
1.3662511984659635
 20
2.3470757430488973
 10
1.3691275167785235
 20
2.1284755512943434
 10
1.3748801534036434
 20
2.1140939597315436
 10
1.423777564717162
 20
2.1140939597315436
 10
1.4180249280920423
 20
2.1514860977948227
 10
1.4180249280920423
 20
2.3470757430488973
 10
1.4554170661553212
 20
2.3499520613614573
 10
1.4611697027804411
 20
2.3902205177372964
 10
1.2023010546500479
 20
2.3902205177372964
  0
LWPOLYLINE
  5
41
330
17
100
AcDbEntity
  8
0
100
AcDbPolyline
 90
4
 70
1
 10
1.6740172579098753
 20
2.4563758389261747
 10
1.6768935762224353
 20
2.4247363374880155
 10
1.725790987535954
 20
2.4276126558005755
 10
1.725790987535954
 20
2.4563758389261747
  0
LWPOLYLINE
  5
42
330
17
100
AcDbEntity
  8
0
100
AcDbPolyline
 90
27
 70
1
 10
0.9232981783317354
 20
2.473633748801534
 10
0.8974113135186961
 20
2.4534995206136148
 10
0.9146692233940557
 20
2.4189837008628956
 10
0.9606903163950145
 20
2.444870565675935
 10
0.9894534995206137
 20
2.450623202301055
 10
1.018216682646213
 20
2.447746883988495
 10
1.0383509108341322
 20
2.439117929050815
 10
1.0556088207094918
 20
2.4218600191754556
 10
1.0642377756471717
 20
2.4046021093000958
 10
1.0671140939597317
 20
2.370086289549377
 10
1.0584851390220518
 20
2.335570469798658
 10
1.0325982742090125
 20
2.292425695110259
 10
1.0067114093959733
 20
2.2607861936720997
 10
0.8887823585810163
 20
2.1457334611697028
 10
0.8887823585810163
 20
2.1140939597315436
 10
1.1275167785234899
 20
2.1140939597315436
 10
1.1246404602109301
 20
2.1572387344199426
 10
0.9635666347075743
 20
2.1601150527325026
 10
1.0556088207094918
 20
2.2492809204218602
 10
1.1016299137104506
 20
2.312559923298178
 10
1.1188878235858102
 20
2.364333652924257
 10
1.1188878235858102
 20
2.3988494726749763
 10
1.1045062320230106
 20
2.441994247363375
 10
1.0757430488974113
 20
2.473633748801534
 10
1.0354745925215725
 20
2.4908916586768934
 10
0.9865771812080537
 20
2.4937679769894534
 10
0.9578139980824545
 20
2.488015340364334
  0
LWPOLYLINE
  5
43
330
17
100
AcDbEntity
  8
0
100
AcDbPolyline
 90
18
 70
1
 10
1.49568552253116
 20
2.5254074784276126
 10
1.4899328859060403
 20
2.485139022051774
 10
1.5215723873441995
 20
2.479386385426654
 10
1.5445829338446788
 20
2.4563758389261747
 10
1.573346116970278
 20
2.3959731543624163
 10
1.573346116970278
 20
2.3729626078619366
 10
1.4726749760306808
 20
2.1140939597315436
 10
1.5273250239693192
 20
2.1169702780441035
 10
1.5992329817833173
 20
2.324065196548418
 10
1.6049856184084372
 20
2.321188878235858
 10
1.6279961649089165
 20
2.2435282837967403
 10
1.6740172579098753
 20
2.1169702780441035
 10
1.728667305848514
 20
2.1140939597315436
 10
1.728667305848514
 20
2.1227229146692235
 10
1.6021093000958773
 20
2.4534995206136148
 10
1.573346116970278
 20
2.4995206136145733
 10
1.5532118887823587
 20
2.516778523489933
 10
1.5330776605944392
 20
2.5254074784276126
  0
LWPOLYLINE
  5
44
330
17
100
AcDbEntity
  8
0
100
AcDbPolyline
 90
9
 70
1
 10
1.7775647171620326
 20
2.5397890699904124
 10
1.7430488974113136
 20
2.516778523489933
 10
1.7459252157238734
 20
2.4966442953020134
 10
1.7516778523489933
 20
2.485139022051774
 10
1.768935762224353
 20
2.4966442953020134
 10
1.7746883988494726
 20
2.4937679769894534
 10
1.7746883988494726
 20
2.3758389261744965
 10
1.8092042186001918
 20
2.3758389261744965
 10
1.8092042186001918
 20
2.5397890699904124
  0
LWPOLYLINE
  5
45
330
17
100
AcDbEntity
  8
0
100
AcDbPolyline
 90
10
 70
1
 10
1.8178331735378717
 20
2.6059443911792908
 10
1.7315436241610738
 20
2.6404602109300095
 10
1.7401725790987537
 20
2.62032598274209
 10
1.7372962607861937
 20
2.61744966442953
 10
0.900287631831256
 20
2.61744966442953
 10
0.900287631831256
 20
2.591562799616491
 10
1.7344199424736337
 20
2.591562799616491
 10
1.7372962607861937
 20
2.585810162991371
 10
1.728667305848514
 20
2.5685522531160117
 10
1.7344199424736337
 20
2.5685522531160117
  0
LWPOLYLINE
  5
46
330
17
100
AcDbEntity
  8
0
100
AcDbPolyline
 90
9
 70
1
 10
1.3346116970278044
 20
3.0661553211888783
 10
0.0
 20
2.324065196548418
 10
0.0
 20
0.7996164908916586
 10
1.3346116970278044
 20
0.06615532118887824
 10
1.3461169702780442
 20
0.06615532118887824
 10
2.6778523489932886
 20
0.7996164908916586
 10
2.6778523489932886
 20
2.318312559923298
 10
2.663470757430489
 20
2.332694151486098
 10
1.354745925215724
 20
3.0604026845637584
  0
LWPOLYLINE
  5
47
330
17
100
AcDbEntity
  8
0
100
AcDbPolyline
 90
8
 70
1
 10
2.065196548418025
 20
1.909875359539789
 10
2.068072866730585
 20
1.167785234899329
 10
2.0393096836049858
 20
1.1303930968360498
 10
1.4036433365292427
 20
0.7823585810162992
 10
1.3978906999041227
 20
1.1332694151486098
 10
1.4007670182166827
 20
1.50431447746884
 10
1.4093959731543624
 20
1.5302013422818792
 10
1.4496644295302015
 20
1.570469798657718
  0
LWPOLYLINE
  5
48
330
17
100
AcDbEntity
  8
0
100
AcDbPolyline
 90
9
 70
1
 10
0.6097794822627037
 20
1.909875359539789
 10
1.2253116011505274
 20
1.570469798657718
 10
1.2655800575263663
 20
1.5302013422818792
 10
1.274209012464046
 20
1.50431447746884
 10
1.277085330776606
 20
1.1332694151486098
 10
1.2713326941514862
 20
0.785234899328859
 10
0.6270373921380633
 20
1.1390220517737297
 10
0.6126558005752637
 20
1.162032598274209
 10
0.6069031639501439
 20
1.803451581975072
  0
LWPOLYLINE
  5
49
330
17
100
AcDbEntity
  8
0
100
AcDbPolyline
 90
11
 70
1
 10
2.554170661553212
 20
2.177372962607862
 10
2.5599232981783318
 20
1.5474592521572388
 10
2.557046979865772
 20
0.9204218600191755
 10
2.548418024928092
 20
0.8945349952061362
 10
2.5340364333652925
 20
0.8715244487056568
 10
2.5081495685522532
 20
0.8456375838926175
 10
1.4007670182166827
 20
0.23873441994247363
 10
1.4007670182166827
 20
0.7305848513902206
 10
2.070949185043145
 20
1.0987535953978906
 10
2.1083413231064236
 20
1.1505273250239694
 10
2.1112176414189836
 20
1.9328859060402686
  0
LWPOLYLINE
  5
4A
330
17
100
AcDbEntity
  8
0
100
AcDbPolyline
 90
12
 70
1
 10
0.12368168744007671
 20
2.180249280920422
 10
0.1351869606903164
 20
2.177372962607862
 10
0.5666347075743049
 20
1.9357622243528285
 10
0.5695110258868649
 20
1.1476510067114094
 10
0.6011505273250239
 20
1.1016299137104506
 10
1.277085330776606
 20
0.7305848513902206
 10
1.277085330776606
 20
0.24161073825503357
 10
1.2713326941514862
 20
0.23585810162991372
 10
0.17833173537871524
 20
0.8370086289549377
 10
0.1351869606903164
 20
0.8801534036433365
 10
0.12080536912751678
 20
0.9146692233940557
 10
0.11792905081495686
 20
1.5445829338446788
  0
LWPOLYLINE
  5
4B
330
17
100
AcDbEntity
  8
0
100
AcDbPolyline
 90
27
 70
1
 10
0.18983700862895495
 20
2.283796740172579
 10
0.1984659635666347
 20
2.292425695110259
 10
1.2972195589645255
 20
2.9050814956855224
 10
1.3231064237775647
 20
2.9108341323106424
 10
1.3720038350910835
 20
2.9079578139980824
 10
1.4065196548418024
 20
2.893576222435283
 10
2.488015340364334
 20
2.286673058485139
 10
2.485139022051774
 20
2.2809204218600194
 10
2.0393096836049858
 20
2.033557046979866
 10
1.8523489932885906
 20
2.142857142857143
 10
1.8264621284755513
 20
2.139980824544583
 10
1.8207094918504314
 20
2.1313518696069034
 10
1.8207094918504314
 20
2.1140939597315436
 10
1.8264621284755513
 20
2.105465004793864
 10
1.984659635666347
 20
2.0162991371045065
 10
1.987535953978907
 20
2.0105465004793865
 10
1.4036433365292427
 20
1.6855225311601152
 10
1.354745925215724
 20
1.6653883029721956
 10
1.308724832214765
 20
1.6682646212847556
 10
0.6874400767018217
 20
2.0105465004793865
 10
0.8427612655800576
 20
2.099712368168744
 10
0.8513902205177373
 20
2.1112176414189836
 10
0.8513902205177373
 20
2.1284755512943434
 10
0.8398849472674976
 20
2.139980824544583
 10
0.8168744007670182
 20
2.137104506232023
 10
0.6586768935762225
 20
2.0450623202301057
 10
0.6356663470757431
 20
2.036433365292426
  0
ENDSEC
  0
SECTION
  2
OBJECTS
  0
DICTIONARY
  5
A
330
0
100
AcDbDictionary
281
1
  3
ACAD_COLOR
350
B
  3
ACAD_GROUP
350
C
  3
ACAD_LAYOUT
350
D
  3
ACAD_MATERIAL
350
E
  3
ACAD_MLEADERSTYLE
350
F
  3
ACAD_MLINESTYLE
350
10
  3
ACAD_PLOTSETTINGS
350
11
  3
ACAD_PLOTSTYLENAME
350
12
  3
ACAD_SCALELIST
350
14
  3
ACAD_TABLESTYLE
350
15
  3
ACAD_VISUALSTYLE
350
16
  3
EZDXF_META
350
2D
  0
DICTIONARY
  5
B
330
A
100
AcDbDictionary
281
1
  0
DICTIONARY
  5
C
330
A
100
AcDbDictionary
281
1
  0
DICTIONARY
  5
D
330
A
100
AcDbDictionary
281
1
  3
Model
350
1A
  3
Layout1
350
1E
  0
DICTIONARY
  5
E
330
A
100
AcDbDictionary
281
1
  3
ByBlock
350
1F
  3
ByLayer
350
20
  3
Global
350
21
  0
DICTIONARY
  5
F
330
A
100
AcDbDictionary
281
1
  3
Standard
350
2C
  0
DICTIONARY
  5
10
330
A
100
AcDbDictionary
281
1
  3
Standard
350
22
  0
DICTIONARY
  5
11
330
A
100
AcDbDictionary
281
1
  0
ACDBDICTIONARYWDFLT
  5
12
330
A
100
AcDbDictionary
281
1
  3
Normal
350
13
100
AcDbDictionaryWithDefault
340
13
  0
ACDBPLACEHOLDER
  5
13
330
12
  0
DICTIONARY
  5
14
330
A
100
AcDbDictionary
281
1
  0
DICTIONARY
  5
15
330
A
100
AcDbDictionary
281
1
  0
DICTIONARY
  5
16
330
A
100
AcDbDictionary
281
1
  0
LAYOUT
  5
1A
330
D
100
AcDbPlotSettings
  1

  4
A3
  6

 40
7.5
 41
20.0
 42
7.5
 43
20.0
 44
420.0
 45
297.0
 46
0.0
 47
0.0
 48
0.0
 49
0.0
140
0.0
141
0.0
142
1.0
143
1.0
 70
1024
 72
1
 73
0
 74
5
  7

 75
16
 76
0
 77
2
 78
300
147
1.0
148
0.0
149
0.0
100
AcDbLayout
  1
Model
 70
1
 71
0
 10
0.0
 20
0.0
 11
420.0
 21
297.0
 12
0.0
 22
0.0
 32
0.0
 14
1e+20
 24
1e+20
 34
1e+20
 15
-1e+20
 25
-1e+20
 35
-1e+20
146
0.0
 13
0.0
 23
0.0
 33
0.0
 16
1.0
 26
0.0
 36
0.0
 17
0.0
 27
1.0
 37
0.0
 76
1
330
17
  0
LAYOUT
  5
1E
330
D
100
AcDbPlotSettings
  1

  4
A3
  6

 40
7.5
 41
20.0
 42
7.5
 43
20.0
 44
420.0
 45
297.0
 46
0.0
 47
0.0
 48
0.0
 49
0.0
140
0.0
141
0.0
142
1.0
143
1.0
 70
0
 72
1
 73
0
 74
5
  7

 75
16
 76
0
 77
2
 78
300
147
1.0
148
0.0
149
0.0
100
AcDbLayout
  1
Layout1
 70
1
 71
1
 10
0.0
 20
0.0
 11
420.0
 21
297.0
 12
0.0
 22
0.0
 32
0.0
 14
1e+20
 24
1e+20
 34
1e+20
 15
-1e+20
 25
-1e+20
 35
-1e+20
146
0.0
 13
0.0
 23
0.0
 33
0.0
 16
1.0
 26
0.0
 36
0.0
 17
0.0
 27
1.0
 37
0.0
 76
1
330
1B
  0
MATERIAL
  5
1F
102
{ACAD_REACTORS
330
E
102
}
330
E
100
AcDbMaterial
  1
ByBlock
  2

 70
0
 40
1.0
 71
1
 41
1.0
 91
-1023410177
 42
1.0
 72
1
  3

 73
1
 74
1
 75
1
 44
0.5
 73
0
 45
1.0
 46
1.0
 77
1
  4

 78
1
 79
1
170
1
 48
1.0
171
1
  6

172
1
173
1
174
1
140
1.0
141
1.0
175
1
  7

176
1
177
1
178
1
143
1.0
179
1
  8

270
1
271
1
272
1
145
1.0
146
1.0
273
1
  9

274
1
275
1
276
1
 42
1.0
 72
1
  3

 73
1
 74
1
 75
1
 94
63
  0
MATERIAL
  5
20
102
{ACAD_REACTORS
330
E
102
}
330
E
100
AcDbMaterial
  1
ByLayer
  2

 70
0
 40
1.0
 71
1
 41
1.0
 91
-1023410177
 42
1.0
 72
1
  3

 73
1
 74
1
 75
1
 44
0.5
 73
0
 45
1.0
 46
1.0
 77
1
  4

 78
1
 79
1
170
1
 48
1.0
171
1
  6

172
1
173
1
174
1
140
1.0
141
1.0
175
1
  7

176
1
177
1
178
1
143
1.0
179
1
  8

270
1
271
1
272
1
145
1.0
146
1.0
273
1
  9

274
1
275
1
276
1
 42
1.0
 72
1
  3

 73
1
 74
1
 75
1
 94
63
  0
MATERIAL
  5
21
102
{ACAD_REACTORS
330
E
102
}
330
E
100
AcDbMaterial
  1
Global
  2

 70
0
 40
1.0
 71
1
 41
1.0
 91
-1023410177
 42
1.0
 72
1
  3

 73
1
 74
1
 75
1
 44
0.5
 73
0
 45
1.0
 46
1.0
 77
1
  4

 78
1
 79
1
170
1
 48
1.0
171
1
  6

172
1
173
1
174
1
140
1.0
141
1.0
175
1
  7

176
1
177
1
178
1
143
1.0
179
1
  8

270
1
271
1
272
1
145
1.0
146
1.0
273
1
  9

274
1
275
1
276
1
 42
1.0
 72
1
  3

 73
1
 74
1
 75
1
 94
63
  0
MLINESTYLE
  5
22
102
{ACAD_REACTORS
330
10
102
}
330
10
100
AcDbMlineStyle
  2
Standard
 70
0
  3

 62
256
 51
90.0
 52
90.0
 71
2
 49
0.5
 62
256
  6
BYLAYER
 49
-0.5
 62
256
  6
BYLAYER
  0
MLEADERSTYLE
  5
2C
102
{ACAD_REACTORS
330
F
102
}
330
F
100
AcDbMLeaderStyle
179
2
170
2
171
1
172
0
 90
2
 40
0.0
 41
0.0
173
1
 91
-1056964608
 92
-2
290
1
 42
2.0
291
1
 43
8.0
  3
Standard
 44
4.0
300

342
29
174
1
175
1
176
0
178
1
 93
-1056964608
 45
4.0
292
0
297
0
 46
4.0
 94
-1056964608
 47
1.0
 49
1.0
140
1.0
294
1
141
0.0
177
0
142
1.0
295
0
296
0
143
3.75
271
0
272
9
273
9
  0
DICTIONARY
  5
2D
330
A
100
AcDbDictionary
280
1
281
1
  3
CREATED_BY_EZDXF
350
2E
  3
WRITTEN_BY_EZDXF
350
4E
  0
DICTIONARYVAR
  5
2E
330
2D
100
DictionaryVariables
280
0
  1
1.4.4 @ 2026-06-10T18:03:19.232225+00:00
  0
DICTIONARYVAR
  5
4E
330
2D
100
DictionaryVariables
280
0
  1
1.4.4 @ 2026-06-10T18:03:19.235172+00:00
  0
ENDSEC
  0
EOF
